# xmcd
#
# Track frame offsets:
#	150
#	11760
#	28203
#	42416
#	54916
#	64382
#	78747
#	90754
#	105027
#	121003
#	131463
#	142078
#	160815
#	172354
#	187931
#	199666
#	215322
#	230316
#	249251
#	273539
#	286781
#	301142
#	317476
#	332688
#
# Disc length: 4775 seconds
#
# Revision: 0
# Processed by: cddbd v1.5.2PL0 Copyright (c) Steve Scherf et al.
# Submitted via: EZCDAudioConverter 2.2.2.1
#
DISCID=4312a518
DTITLE=Sandro - Por Siempre
DYEAR=2002
DGENRE=Hispano
TTITLE0=Rosa, Rosa
TTITLE1=Porque yo quiero
TTITLE2=Se te nota
TTITLE3=Como lo hice yo
TTITLE4=Tengo
TTITLE5=El maniqui
TTITLE6=Voy a abrazarme a tus pies
TTITLE7=La vida sigue igual
TTITLE8=Las manos
TTITLE9=Una muchacha con una guitarra
TTITLE10=Yo soy gitano
TTITLE11=Sus ojos se cerraron
TTITLE12=Hasta aqui llego mi amor
TTITLE13=Pobre mi madre querida
TTITLE14=Quiero llenarme de ti
TTITLE15=El trigal
TTITLE16=Te quiero tanto amada
TTITLE17=Despues de la guerra
TTITLE18=Sin sentimiento
TTITLE19=Como te dire
TTITLE20=Me amas y me dejas
TTITLE21=Mi oracion
TTITLE22=Querida
TTITLE23=Es el amante
EXTD=
EXTT0=
EXTT1=
EXTT2=
EXTT3=
EXTT4=
EXTT5=
EXTT6=
EXTT7=
EXTT8=
EXTT9=
EXTT10=
EXTT11=
EXTT12=
EXTT13=
EXTT14=
EXTT15=
EXTT16=
EXTT17=
EXTT18=
EXTT19=
EXTT20=
EXTT21=
EXTT22=
EXTT23=
PLAYORDER=
